<?xml version="1.0" encoding="UTF-8"?>
<svg xmlns="http://www.w3.org/2000/svg" xmlns:xlink="http://www.w3.org/1999/xlink" width="222px" height="250px" viewBox="0 0 222 249" version="1.1">
<g id="surface1">
<path style=" stroke:none;fill-rule:nonzero;fill:rgb(63.137255%,47.45098%,86.27451%);fill-opacity:1;" d="M 221.011719 73.710938 C 221.011719 69.566406 220.121094 65.902344 218.324219 62.757812 C 216.558594 59.667969 213.910156 57.074219 210.363281 55.027344 C 181.066406 38.1875 151.746094 21.398438 122.460938 4.542969 C 114.5625 0 106.910156 0.167969 99.074219 4.777344 C 87.414062 11.628906 29.035156 44.972656 11.636719 55.015625 C 4.472656 59.152344 0.988281 65.480469 0.988281 73.703125 C 0.976562 107.566406 0.988281 141.433594 0.976562 175.296875 C 0.976562 179.351562 1.828125 182.945312 3.546875 186.039062 C 5.316406 189.222656 8 191.886719 11.628906 193.980469 C 29.027344 204.027344 87.410156 237.367188 99.070312 244.222656 C 106.910156 248.835938 114.5625 249 122.460938 244.457031 C 151.75 227.597656 181.074219 210.8125 210.371094 193.972656 C 214.003906 191.878906 216.683594 189.214844 218.453125 186.03125 C 220.167969 182.933594 221.023438 179.34375 221.023438 175.285156 C 221.023438 175.285156 221.023438 107.574219 221.011719 73.710938 "/>
<path style=" stroke:none;fill-rule:nonzero;fill:rgb(15.686275%,0%,40.784314%);fill-opacity:1;" d="M 111.335938 124.167969 L 3.546875 186.039062 C 5.316406 189.222656 8 191.886719 11.628906 193.980469 C 29.027344 204.027344 87.410156 237.367188 99.070312 244.222656 C 106.910156 248.835938 114.5625 249 122.460938 244.457031 C 151.75 227.597656 181.074219 210.8125 210.371094 193.972656 C 214.003906 191.878906 216.683594 189.214844 218.453125 186.03125 Z M 111.335938 124.167969 "/>
<path style=" stroke:none;fill-rule:nonzero;fill:rgb(22.352941%,0%,56.862745%);fill-opacity:1;" d="M 221.011719 73.710938 C 221.011719 69.566406 220.121094 65.902344 218.324219 62.757812 L 111.335938 124.171875 L 218.453125 186.03125 C 220.167969 182.933594 221.023438 179.34375 221.023438 175.285156 C 221.023438 175.285156 221.023438 107.574219 221.011719 73.710938 "/>
<path style=" stroke:none;fill-rule:nonzero;fill:rgb(100%,100%,100%);fill-opacity:1;" d="M 174.800781 101.039062 L 174.800781 112.605469 L 186.398438 112.605469 L 186.398438 101.039062 L 192.199219 101.039062 L 192.199219 112.605469 L 203.800781 112.605469 L 203.800781 118.386719 L 192.199219 118.386719 L 192.199219 129.953125 L 203.800781 129.953125 L 203.800781 135.734375 L 192.199219 135.734375 L 192.199219 147.300781 L 186.398438 147.300781 L 186.398438 135.734375 L 174.800781 135.734375 L 174.800781 147.300781 L 169 147.300781 L 169 135.734375 L 157.398438 135.734375 L 157.398438 129.953125 L 169 129.953125 L 169 118.386719 L 157.398438 118.386719 L 157.398438 112.605469 L 169 112.605469 L 169 101.039062 Z M 186.398438 118.386719 L 174.800781 118.386719 L 174.800781 129.953125 L 186.398438 129.953125 Z M 186.398438 118.386719 "/>
<path style=" stroke:none;fill-rule:nonzero;fill:rgb(100%,100%,100%);fill-opacity:1;" d="M 111.574219 42.960938 C 141.832031 42.960938 168.25 59.34375 182.398438 83.691406 L 182.261719 83.457031 L 146.660156 103.894531 C 139.644531 92.054688 126.789062 84.066406 112.039062 83.898438 L 111.574219 83.898438 C 89.078125 83.898438 70.84375 102.074219 70.84375 124.5 C 70.835938 131.566406 72.6875 138.511719 76.214844 144.644531 C 83.234375 156.863281 96.433594 165.101562 111.574219 165.101562 C 126.804688 165.101562 140.078125 156.757812 147.0625 144.410156 L 146.894531 144.703125 L 182.441406 165.234375 C 168.445312 189.378906 142.390625 205.707031 112.484375 206.035156 L 111.574219 206.039062 C 81.21875 206.039062 54.726562 189.554688 40.613281 165.078125 C 33.722656 153.125 29.78125 139.273438 29.78125 124.5 C 29.78125 79.46875 66.398438 42.960938 111.574219 42.960938 Z M 111.574219 42.960938 "/>
</g>
</svg>
